<mxfile host="app.diagrams.net" agent="Mozilla/5.0 (Windows NT 10.0; Win64; x64) AppleWebKit/537.36 (KHTML, like Gecko) Chrome/128.0.0.0 Safari/537.36" version="24.7.12">
  <diagram name="第 1 页" id="d14CArAquDOdE6oovLRp">
    <mxGraphModel dx="780" dy="538" grid="1" gridSize="10" guides="1" tooltips="1" connect="1" arrows="1" fold="1" page="1" pageScale="1" pageWidth="827" pageHeight="1169" math="0" shadow="0">
      <root>
        <mxCell id="0" />
        <mxCell id="1" parent="0" />
        <mxCell id="447ApKzKNe0OMAUxqZO1-1" value="gai_cci_exporter" style="rounded=1;whiteSpace=wrap;html=1;" vertex="1" parent="1">
          <mxGeometry x="270" y="550" width="100" height="50" as="geometry" />
        </mxCell>
        <mxCell id="447ApKzKNe0OMAUxqZO1-2" value="tenant1：work_space1" style="rounded=1;whiteSpace=wrap;html=1;" vertex="1" parent="1">
          <mxGeometry x="440" y="430" width="90" height="50" as="geometry" />
        </mxCell>
        <mxCell id="447ApKzKNe0OMAUxqZO1-3" value="tenant1：work_space2" style="rounded=1;whiteSpace=wrap;html=1;" vertex="1" parent="1">
          <mxGeometry x="440" y="530" width="90" height="50" as="geometry" />
        </mxCell>
        <mxCell id="447ApKzKNe0OMAUxqZO1-4" value="tenant2：work_space1" style="rounded=1;whiteSpace=wrap;html=1;" vertex="1" parent="1">
          <mxGeometry x="440" y="640" width="90" height="50" as="geometry" />
        </mxCell>
        <mxCell id="447ApKzKNe0OMAUxqZO1-5" value="" style="endArrow=classic;html=1;rounded=0;entryX=0;entryY=0.5;entryDx=0;entryDy=0;" edge="1" parent="1" target="447ApKzKNe0OMAUxqZO1-2">
          <mxGeometry width="50" height="50" relative="1" as="geometry">
            <mxPoint x="330" y="550" as="sourcePoint" />
            <mxPoint x="380" y="500" as="targetPoint" />
          </mxGeometry>
        </mxCell>
        <mxCell id="447ApKzKNe0OMAUxqZO1-6" value="" style="endArrow=classic;html=1;rounded=0;entryX=0;entryY=0.5;entryDx=0;entryDy=0;exitX=1;exitY=0.25;exitDx=0;exitDy=0;" edge="1" parent="1" source="447ApKzKNe0OMAUxqZO1-1" target="447ApKzKNe0OMAUxqZO1-3">
          <mxGeometry width="50" height="50" relative="1" as="geometry">
            <mxPoint x="340" y="560" as="sourcePoint" />
            <mxPoint x="450" y="465" as="targetPoint" />
          </mxGeometry>
        </mxCell>
        <mxCell id="447ApKzKNe0OMAUxqZO1-7" value="" style="endArrow=classic;html=1;rounded=0;exitX=1;exitY=0.75;exitDx=0;exitDy=0;entryX=0;entryY=0.5;entryDx=0;entryDy=0;" edge="1" parent="1" source="447ApKzKNe0OMAUxqZO1-1" target="447ApKzKNe0OMAUxqZO1-4">
          <mxGeometry width="50" height="50" relative="1" as="geometry">
            <mxPoint x="380" y="610" as="sourcePoint" />
            <mxPoint x="430" y="560" as="targetPoint" />
          </mxGeometry>
        </mxCell>
        <mxCell id="447ApKzKNe0OMAUxqZO1-8" value="Step1: Get App list by workspace_id&lt;div&gt;&lt;br&gt;&lt;/div&gt;" style="text;html=1;align=center;verticalAlign=middle;whiteSpace=wrap;rounded=0;" vertex="1" parent="1">
          <mxGeometry x="530" y="455" width="230" as="geometry" />
        </mxCell>
        <mxCell id="447ApKzKNe0OMAUxqZO1-10" value="Step2: Periodically get app/instance metrics" style="text;html=1;align=center;verticalAlign=middle;whiteSpace=wrap;rounded=0;" vertex="1" parent="1">
          <mxGeometry x="530" y="480" width="230" as="geometry" />
        </mxCell>
      </root>
    </mxGraphModel>
  </diagram>
</mxfile>
